<svg width="52" height="51" viewBox="0 0 52 51" fill="none" xmlns="http://www.w3.org/2000/svg">
<rect x="1.00415" y="1" width="49.6937" height="48.5188" rx="24.2594" fill="#FFDF2B" stroke="#FFDF2B" stroke-width="2"/>
<path d="M30.5035 15.2734H20.3527C17.5497 15.2734 15.2773 17.5458 15.2773 20.3488V30.4996C15.2773 33.3026 17.5497 35.575 20.3527 35.575H30.5035C33.3065 35.575 35.5789 33.3026 35.5789 30.4996V20.3488C35.5789 17.5458 33.3065 15.2734 30.5035 15.2734Z" stroke="black" stroke-width="2" stroke-linecap="round" stroke-linejoin="round"/>
<path d="M29.4883 24.7846C29.6136 25.6293 29.4693 26.4921 29.0759 27.2502C28.6826 28.0082 28.0603 28.623 27.2974 29.0069C26.5346 29.3909 25.6701 29.5245 24.8269 29.3889C23.9837 29.2532 23.2048 28.8551 22.6009 28.2512C21.997 27.6473 21.5989 26.8684 21.4632 26.0252C21.3275 25.182 21.4612 24.3175 21.8451 23.5547C22.2291 22.7918 22.8438 22.1695 23.6019 21.7761C24.3599 21.3828 25.2227 21.2385 26.0675 21.3637C26.9292 21.4915 27.727 21.8931 28.343 22.5091C28.959 23.1251 29.3605 23.9228 29.4883 24.7846Z" stroke="black" stroke-width="2" stroke-linecap="round" stroke-linejoin="round"/>
<path d="M31.0112 19.8408H31.0245" stroke="black" stroke-width="2" stroke-linecap="round" stroke-linejoin="round"/>
</svg>
