<svg width="52" height="51" viewBox="0 0 52 51" fill="none" xmlns="http://www.w3.org/2000/svg">
<rect x="1" y="1" width="49.6937" height="48.5188" rx="24.2594" fill="#FFDF2B" stroke="#FFDF2B" stroke-width="2"/>
<path d="M38.2967 18.4898C38.1581 17.9361 37.8758 17.4288 37.4784 17.0191C37.081 16.6095 36.5826 16.3119 36.0333 16.1565C34.0267 15.6665 26 15.6665 26 15.6665C26 15.6665 17.9733 15.6665 15.9667 16.2032C15.4175 16.3586 14.919 16.6561 14.5216 17.0658C14.1242 17.4755 13.8419 17.9828 13.7033 18.5365C13.3361 20.573 13.1565 22.6389 13.1667 24.7082C13.1536 26.7931 13.3332 28.8747 13.7033 30.9265C13.8561 31.463 14.1447 31.951 14.5412 32.3434C14.9377 32.7358 15.4286 33.0193 15.9667 33.1665C17.9733 33.7032 26 33.7032 26 33.7032C26 33.7032 34.0267 33.7032 36.0333 33.1665C36.5826 33.0111 37.081 32.7136 37.4784 32.3039C37.8758 31.8942 38.1581 31.3869 38.2967 30.8332C38.6611 28.812 38.8407 26.7619 38.8333 24.7082C38.8464 22.6233 38.6668 20.5417 38.2967 18.4898V18.4898Z" stroke="black" stroke-width="2" stroke-linecap="round" stroke-linejoin="round"/>
<path d="M23.375 28.5236L30.0833 24.7086L23.375 20.8936V28.5236Z" stroke="black" stroke-width="2" stroke-linecap="round" stroke-linejoin="round"/>
</svg>
