<svg width="53" height="51" viewBox="0 0 53 51" fill="none" xmlns="http://www.w3.org/2000/svg">
<rect x="1.41479" y="1" width="49.6937" height="48.5188" rx="24.2594" fill="#FFDF2B" stroke="#FFDF2B" stroke-width="2"/>
<path d="M38.5325 16.4583C37.487 17.1659 36.3294 17.7071 35.1043 18.0611C34.4467 17.3357 33.5728 16.8215 32.6008 16.5881C31.6288 16.3547 30.6056 16.4134 29.6694 16.7563C28.7333 17.0991 27.9295 17.7095 27.3668 18.505C26.804 19.3004 26.5094 20.2426 26.5228 21.2039V22.2515C24.6042 22.2992 22.703 21.8909 20.9886 21.0629C19.2742 20.2349 17.7998 19.013 16.6968 17.5059C16.6968 17.5059 12.3296 26.9342 22.1557 31.1246C19.9072 32.5891 17.2286 33.3234 14.5132 33.2198C24.3393 38.4578 36.3489 33.2198 36.3489 21.1725C36.3479 20.8807 36.3186 20.5896 36.2615 20.303C37.3758 19.2485 38.1622 17.9173 38.5325 16.4583Z" stroke="black" stroke-width="2" stroke-linecap="round" stroke-linejoin="round"/>
</svg>
